<svg width="67" height="89" viewBox="0 0 67 89" fill="none" xmlns="http://www.w3.org/2000/svg">
<path d="M33.2245 86.6326C33.9468 86.6326 34.9961 86.6326 36.0446 86.5649C36.5071 86.535 36.598 85.9513 36.9167 85.4034C37.2479 84.8343 37.5556 84.3097 37.8743 83.7618C38.2055 83.1927 38.6938 82.7584 39.2642 82.2345C39.9308 81.6223 40.3354 81.0265 40.7697 80.5012C41.1817 80.003 41.6131 79.5217 41.9783 78.9738C42.3383 78.4339 42.754 78.0169 43.1863 77.5826C43.6468 77.1199 44.029 76.5121 44.5768 76.1004C45.1032 75.7048 45.6706 75.3712 46.2184 75.0285C46.7147 74.7182 47.3121 74.6407 47.86 74.3446C48.3749 74.0662 48.9537 73.9567 49.5016 73.7741C50.0495 73.5915 50.5953 73.4095 51.1432 73.1133C51.6581 72.835 52.2369 72.6352 52.7848 72.4061C53.3322 72.1772 53.8785 71.9047 54.4264 71.6086C54.9566 71.322 55.5201 71.0839 56.068 70.7652C56.6372 70.4341 57.252 69.8555 57.8464 69.3972C58.3604 69.0009 58.713 68.441 59.1918 68.0066C59.6707 67.5723 60.3519 66.8924 60.9928 66.365C61.555 65.9024 61.9962 65.4314 62.4976 64.997C63.0479 64.5203 63.501 64.0634 63.9798 63.629C64.4633 63.1904 64.7322 62.5586 64.9613 62.0107C65.1842 61.4779 65.3259 60.917 65.3499 59.6878C65.3638 58.9708 64.6912 58.5449 64.2568 58.0661C63.8182 57.5826 63.1864 57.404 62.6385 57.2213C62.0906 57.0387 59.0167 56.9471 57.1439 57.0606C56.4795 57.1009 55.936 57.3109 55.161 57.38C54.5481 57.4347 53.9305 57.6311 53.3361 57.7672C52.7732 57.8961 52.2424 58.1317 51.6945 58.3144C51.1466 58.497 50.6008 58.7692 50.0529 59.0209C49.4867 59.2811 48.9592 59.59 48.4113 59.9553C47.8634 60.3205 47.3176 60.6844 46.7697 61.0497C46.0948 61.4996 45.3121 62.3698 44.7177 62.8281C44.1963 63.2301 43.624 63.6475 43.0536 64.1044C42.2856 64.7195 41.7088 65.3356 41.2971 65.837C40.8852 66.3385 40.3408 66.7939 39.9291 67.3418C39.4798 67.9396 38.9263 68.5723 38.5611 69.1202C38.1958 69.6681 37.8319 70.2139 37.4892 70.7618C37.1789 71.258 37.1014 71.8555 36.9188 72.4034C36.7362 72.9512 36.5542 73.4971 36.3716 74.0675C36.1622 74.7217 36.0973 75.456 35.9612 76.097C35.8412 76.6619 35.5966 77.1907 35.5275 77.9656C35.469 78.6221 35.1862 79.3329 35.1171 80.1544C35.0619 80.8112 34.8661 81.5217 34.73 82.1161C34.5843 82.7525 34.5022 83.4834 34.3422 84.1674C34.2591 84.5225 34.2738 84.8528 34.1602 84.9903C33.2252 86.1225 33.8182 80.8897 33.7943 80.2283C33.7716 79.6019 33.9988 78.9745 34.0679 78.1996C34.1264 77.5431 34.3189 76.2002 34.4325 75.19C34.5449 74.1892 34.5925 72.8268 34.479 71.8151C34.4334 71.4087 34.4106 71.0388 34.3196 70.7659C34.2738 70.6284 34.2286 70.493 34.2054 64.7576C34.1821 59.0223 34.1821 47.6912 34.1595 41.7862C34.1365 35.7455 34.0002 35.4709 33.9092 35.198C33.6888 34.5367 33.6814 33.6939 33.5214 32.7164C33.1705 30.5736 33.3613 29.7294 33.2252 29.042C33.1693 28.7598 33.0877 28.133 33.02 27.4031C32.9976 27.1613 32.8169 27.215 32.7245 27.306C32.3174 27.7071 31.9961 28.2629 31.5617 28.7417C31.1231 29.2252 30.401 29.5844 29.8066 30.1097C29.3033 30.5545 28.7129 30.8621 28.1424 31.2725C27.4205 31.7919 26.9345 32.2301 26.364 32.6179C25.688 33.0775 25.1561 33.371 24.6082 33.6898C24.0597 34.0088 23.5145 34.2821 22.944 34.5338C22.2423 34.8435 21.5993 35.0126 21.0514 35.1952C20.5035 35.3779 19.9577 35.5598 19.2963 35.7424C18.7183 35.902 18.1793 36.107 17.6314 36.2896C17.0835 36.4723 16.4474 36.6542 15.5124 36.7233C14.8417 36.7728 14.2121 36.9278 13.5507 36.9969C12.9273 37.062 12.2066 37.2014 11.4987 37.2705C10.5193 37.3661 9.15052 37.2944 8.4891 37.1118C7.9111 36.9522 7.37213 36.7472 6.50619 35.9517C6.30176 35.7639 6.23122 35.6091 6.20728 35.4716C6.10704 34.8959 6.95626 34.4681 7.50414 34.1029C8.07372 33.7232 8.59785 33.2369 9.19088 32.804C10.0394 32.1844 10.6033 31.5516 11.1977 31.0933C11.7192 30.6912 12.2914 30.4544 12.8393 30.1583C13.3542 29.8799 13.933 29.6802 14.4809 29.451C15.0137 29.2282 15.6649 29.0864 16.2593 28.7903C16.7832 28.5293 17.353 28.4024 17.9235 28.2198C18.5903 28.0063 19.1314 27.7185 19.6793 27.5358C20.268 27.3396 20.9098 27.1713 21.4803 26.9886C22.1344 26.7792 22.6882 26.6241 23.2361 26.4414C23.784 26.2588 24.3298 26.0769 24.8777 25.8942C25.4552 25.7017 26.1082 25.6665 26.6787 25.4838C28.0036 25.0596 30.0754 25.4366 30.6233 25.6193C31.1712 25.8019 31.717 26.0741 32.2649 26.5303C32.4997 26.7259 32.8128 26.8046 33.0631 26.8737C33.1757 26.9048 33.2683 26.7171 33.3148 26.557C33.3613 26.397 33.3613 26.2164 33.2936 26.0782C32.9879 25.4544 32.1329 25.1658 31.585 24.9141C30.9981 24.6444 30.4913 24.2985 29.9208 24.0023C29.6019 23.8367 29.2587 23.7964 27.9926 23.728C24.7449 23.5525 22.4187 23.7499 21.3106 23.8183C16.5454 24.1124 15.7196 23.7047 15.0322 23.5686C14.4657 23.4565 13.9385 23.2041 13.3906 23.0214C12.8427 22.8388 12.2969 22.5666 11.7265 22.1562C11.0046 21.6368 10.5185 21.1083 9.97064 20.6965C9.44425 20.3009 8.87692 19.9674 8.10195 19.2615C7.53705 18.747 6.96173 18.3258 6.41385 17.938C5.8196 17.5173 5.32013 17.0946 4.77225 16.7293C4.22437 16.3641 3.67854 16.0002 3.13065 15.6124C2.53758 15.1926 2.26403 14.5419 2.05746 13.9037C1.88985 13.3859 2.12449 12.8989 2.30644 12.626C2.66643 12.086 3.26267 11.7594 3.81055 11.4167C4.32149 11.0971 4.90426 10.8018 5.45214 10.5727C5.99954 10.3437 6.81672 9.98101 7.52671 9.7293C8.24965 9.473 9.14231 9.16021 12.5548 8.97622C13.6675 8.91622 14.2066 9.29428 14.7545 9.4769C15.2972 9.6578 15.7114 10.2054 16.327 10.6609C17.3263 11.4004 17.7634 12.074 18.3113 12.3497C18.8272 12.6093 19.405 12.8046 20.0664 13.3969C20.6113 13.8848 21.1834 14.3996 21.7087 14.7204C22.2459 15.0485 22.6882 15.5405 23.1226 16.0193C23.5612 16.5029 24.193 16.6815 24.968 17.1137C25.5881 17.4597 26.1082 17.8661 26.6561 18.3224C27.1269 18.7144 27.7498 18.8703 28.2977 19.189C28.8668 19.5201 29.3914 19.9181 29.7122 20.3969C30.0448 20.8933 30.3955 21.3764 30.8743 21.8108C31.3387 22.232 31.4899 22.8812 31.9687 23.4291C32.4056 23.929 32.8579 24.386 33.2232 24.9339C33.5884 25.4818 33.9523 26.0276 34.3401 26.5529C34.7241 27.073 35.1835 27.5324 35.4352 28.0803C35.7048 28.6672 36.1411 29.174 36.3928 29.7219C36.6624 30.3088 37.0987 30.8156 37.4865 31.3635C37.9072 31.9577 38.3299 32.4572 38.7403 33.0276C39.2596 33.7496 39.7882 34.2356 40.1999 34.7835C40.5955 35.3099 40.9291 35.8772 41.3169 36.4025C41.7009 36.9226 42.2506 37.2917 42.6849 37.7705C43.1062 38.2349 43.6651 38.4764 44.1664 38.7972C44.767 39.1814 45.2602 39.6173 45.7855 40.0051C46.3056 40.3891 46.6747 40.9388 47.176 41.3505C47.705 41.785 48.2697 42.2165 48.8176 42.5817C49.3655 42.947 49.9113 43.2206 50.4592 43.4032C51.1625 43.6376 52.1001 43.631 53.5564 43.6549C54.0202 43.6625 54.2903 43.4504 54.5632 43.2459C55.1203 42.8284 55.293 42.1754 55.4086 41.4005C55.4994 40.7918 55.7499 40.2602 55.819 39.5537C55.9588 38.1243 55.843 36.293 55.6378 35.7452C55.4192 35.1616 55.0687 34.6515 54.726 34.1036C54.4064 33.5926 54.1111 33.0099 53.4052 32.2349C52.8051 31.576 52.1959 30.8211 51.7171 30.3867C51.191 29.9095 50.6008 29.226 50.0529 28.7677C49.5187 28.3208 48.8224 28.0386 48.2745 27.6733C47.7466 27.3213 47.1808 27.1713 46.5194 26.8751C45.9653 26.627 45.3121 26.4873 44.6275 26.2821C43.5823 25.9688 42.94 25.713 42.256 25.4838C41.5835 25.2585 41.0248 25.1193 40.3634 24.9366C39.7854 24.777 39.2464 24.5721 38.676 24.3894C38.0219 24.18 37.468 23.9346 36.9202 23.7054C36.3874 23.4826 35.8264 23.3409 35.2786 23.0447C34.7637 22.7664 34.1849 22.6569 33.7724 22.4742C33.2595 22.2471 35.137 22.427 36.0255 22.4961C37.456 22.6073 39.6514 22.5201 40.1992 22.2239C40.7294 21.9373 41.293 21.6993 41.8408 21.4031C42.496 21.0489 43.345 20.7417 43.8928 20.559C44.4557 20.3714 44.9866 20.0577 45.5344 19.7389C46.0829 19.4198 46.6281 19.1466 47.176 18.9174C47.7234 18.6885 48.2697 18.4161 48.8176 18.2334C49.3655 18.0508 49.9113 17.8689 50.4592 17.5727C51.0996 17.2265 51.9633 17.0481 52.5112 16.8655C53.0591 16.6828 53.6049 16.5009 54.1528 16.3183C54.7415 16.122 55.3833 15.9537 55.9312 15.8388C56.661 15.6857 57.2985 16.7717 57.8238 17.1596C58.3714 17.5638 58.8033 18.1397 59.2602 18.6863C60.0275 19.604 60.6747 20.4188 60.9935 20.9667C61.3126 21.5152 61.5858 22.0604 61.9511 22.6083C62.3163 23.1562 62.5899 23.5666 62.7042 23.8395C62.9243 24.3655 62.1823 24.9332 61.6809 25.4359C61.2615 25.8564 60.5872 25.847 59.5851 25.9161C58.7131 25.9762 57.7144 25.9401 53.8737 25.9161C52.4662 25.9073 51.5584 26.1206 49.8751 26.1446C49.0417 26.1564 48.412 25.9401 47.5693 25.871C46.622 25.7933 45.0933 25.6199 43.9886 25.5064C43.1686 25.4221 42.5296 25.2561 41.8231 25.0734C40.9863 24.8572 40.3408 24.7089 39.6343 24.5488C38.8516 24.3715 38.2888 24.2985 37.6048 24.1158C36.7819 23.8961 35.9632 23.6145 35.1883 23.4318C34.583 23.2892 34.0481 23.0673 33.5453 22.7259C33.0717 22.4044 33.1342 21.6555 33.0651 20.9941C33.0036 20.4043 32.7238 19.7868 32.6547 18.8518C32.5986 18.0922 32.4502 17.2779 32.3811 16.6165C32.315 15.9834 32.0398 15.3627 31.8572 14.8148C31.6563 14.2122 31.3558 13.5843 31.2868 12.9229C31.2206 12.2898 30.9454 11.6691 30.8764 10.7806C30.8269 10.1446 30.535 9.52684 30.466 8.36472C30.4233 7.64755 30.2614 7.01793 30.2601 6.26485C30.2593 5.82954 30.8059 7.14926 31.0576 7.71971C31.3841 8.45972 31.717 9.47212 31.9926 10.1595C32.2135 10.7103 32.5843 11.2532 32.836 11.8011C33.1056 12.388 33.6322 12.8948 33.9304 13.4427C34.2392 14.01 34.6363 14.5364 34.8654 15.0843C35.0944 15.6317 35.4571 16.178 35.8223 16.7259C36.2176 17.3188 36.8251 17.8196 37.2129 18.3449C37.5775 18.8387 37.9195 19.3244 38.3299 19.782C38.7606 20.2623 39.5146 19.5105 40.0625 19.3053C40.6673 19.0787 41.1562 18.5994 41.704 18.1432C42.1749 17.7511 42.7978 17.505 43.3456 17.1397C43.8935 16.7745 44.4394 16.4106 44.9872 16.1589C45.5535 15.8987 46.0809 15.5898 47.1965 15.02C47.8293 14.6969 48.4065 14.4954 48.9544 14.1527C49.4654 13.8331 50.0481 13.6281 50.596 13.4455C51.1439 13.2628 51.6897 13.0809 52.2376 12.7847C52.7525 12.5064 53.5119 12.4872 54.1528 12.3511C54.7177 12.2311 55.2465 11.9865 55.7944 11.6903C56.3093 11.412 56.8881 11.2122 57.436 10.9605C58.1602 10.6278 58.8033 9.84421 59.2377 9.36541C59.65 8.91082 59.9442 8.38593 60.1734 7.83805C60.4128 7.26558 60.4476 5.79494 60.3115 4.82845C60.2288 4.24091 59.6296 3.82503 59.0817 3.45977C58.5537 3.10779 57.988 2.86743 57.4401 2.63829C56.9073 2.41546 56.2561 2.27372 55.412 2.11367C54.7126 1.98103 52.8936 1.95361 51.6945 2.08973C51.002 2.16834 50.1001 2.3175 49.4832 2.47755C48.8388 2.6447 48.1849 2.63761 47.568 2.75115C46.9133 2.87163 46.2697 2.91121 45.6528 3.04732C44.9821 3.19529 44.2642 3.41189 43.5098 3.61709C42.8674 3.79181 42.3928 4.32298 41.8449 4.71081C41.2507 5.13146 40.7512 5.64446 40.4304 6.19235C40.0702 6.8076 39.7006 7.28606 39.3819 7.83394C39.0507 8.4031 38.743 8.92765 38.4468 9.47554C38.1603 10.0057 37.9222 10.5692 37.7396 11.2307C37.58 11.8087 37.2847 12.7088 37.0556 13.4653C36.8339 14.1973 36.8278 14.9468 36.7587 16.176C36.7191 16.8805 36.4174 17.4092 36.2348 17.9571C36.0522 18.505 35.8702 19.0508 35.8011 19.7123C35.7175 20.5129 35.6418 21.3778 35.5508 21.5153C35.304 21.8883 35.1862 20.3805 34.7765 19.1719C34.639 18.7827 34.5925 18.4626 34.5699 18.1213C34.5474 17.9605 34.5022 17.8251 34.3189 17.412" stroke="black" stroke-width="3" stroke-linecap="round"/>
</svg>
